<svg xmlns="http://www.w3.org/2000/svg" xmlns:xlink="http://www.w3.org/1999/xlink" width="300" zoomAndPan="magnify" viewBox="0 0 224.87999 149.999998" height="200" preserveAspectRatio="xMidYMid meet" version="1.0"><defs><g/></defs><g fill="#ffffff" fill-opacity="1"><g transform="translate(52.520186, 79.357757)"><g><path d="M 0.328125 0 L 2.796875 -12.78125 L 5.484375 -12.78125 L 3 0 Z M 0.328125 0 "/></g></g></g><g fill="#ffffff" fill-opacity="1"><g transform="translate(56.064755, 79.357757)"><g><path d="M 8.015625 0 L 4.625 -10.265625 C 4.488281 -9.285156 4.375 -8.5625 4.28125 -8.09375 L 2.703125 0 L 0.328125 0 L 2.8125 -12.78125 L 5.984375 -12.78125 L 9.40625 -2.4375 L 9.515625 -3.171875 C 9.578125 -3.671875 9.664062 -4.195312 9.78125 -4.75 L 11.359375 -12.78125 L 13.734375 -12.78125 L 11.25 0 Z M 8.015625 0 "/></g></g></g><g fill="#ffffff" fill-opacity="1"><g transform="translate(67.863319, 79.357757)"><g><path d="M 5.4375 0.1875 C 3.820312 0.1875 2.59375 -0.0976562 1.75 -0.671875 C 0.90625 -1.242188 0.398438 -2.125 0.234375 -3.3125 L 2.84375 -3.75 C 2.96875 -3.082031 3.25 -2.59375 3.6875 -2.28125 C 4.132812 -1.976562 4.78125 -1.828125 5.625 -1.828125 C 7.707031 -1.828125 8.75 -2.425781 8.75 -3.625 C 8.75 -4.113281 8.566406 -4.5 8.203125 -4.78125 C 7.847656 -5.0625 7.128906 -5.335938 6.046875 -5.609375 C 4.929688 -5.898438 4.109375 -6.207031 3.578125 -6.53125 C 3.046875 -6.851562 2.640625 -7.242188 2.359375 -7.703125 C 2.078125 -8.171875 1.9375 -8.738281 1.9375 -9.40625 C 1.9375 -10.476562 2.410156 -11.335938 3.359375 -11.984375 C 4.304688 -12.640625 5.5625 -12.96875 7.125 -12.96875 C 8.570312 -12.96875 9.726562 -12.707031 10.59375 -12.1875 C 11.46875 -11.664062 12.003906 -10.898438 12.203125 -9.890625 L 9.59375 -9.296875 C 9.457031 -9.835938 9.164062 -10.269531 8.71875 -10.59375 C 8.28125 -10.914062 7.703125 -11.078125 6.984375 -11.078125 C 6.234375 -11.078125 5.644531 -10.9375 5.21875 -10.65625 C 4.789062 -10.375 4.578125 -9.988281 4.578125 -9.5 C 4.578125 -9.21875 4.65625 -8.972656 4.8125 -8.765625 C 4.96875 -8.566406 5.195312 -8.394531 5.5 -8.25 C 5.800781 -8.101562 6.398438 -7.910156 7.296875 -7.671875 C 8.253906 -7.398438 8.960938 -7.144531 9.421875 -6.90625 C 9.878906 -6.675781 10.242188 -6.414062 10.515625 -6.125 C 10.796875 -5.84375 11.007812 -5.515625 11.15625 -5.140625 C 11.300781 -4.765625 11.375 -4.332031 11.375 -3.84375 C 11.375 -2.53125 10.867188 -1.53125 9.859375 -0.84375 C 8.859375 -0.15625 7.382812 0.1875 5.4375 0.1875 Z M 5.4375 0.1875 "/></g></g></g><g fill="#ffffff" fill-opacity="1"><g transform="translate(78.636936, 79.357757)"><g><path d="M 8.125 -10.71875 L 6.03125 0 L 3.359375 0 L 5.4375 -10.71875 L 1.3125 -10.71875 L 1.71875 -12.78125 L 12.65625 -12.78125 L 12.25 -10.71875 Z M 8.125 -10.71875 "/></g></g></g><g fill="#ffffff" fill-opacity="1"><g transform="translate(88.367465, 79.357757)"><g><path d="M 9.15625 0 L 7.078125 -4.84375 L 3.9375 -4.84375 L 3 0 L 0.328125 0 L 2.8125 -12.78125 L 8.71875 -12.78125 C 9.675781 -12.78125 10.5 -12.628906 11.1875 -12.328125 C 11.875 -12.035156 12.394531 -11.613281 12.75 -11.0625 C 13.113281 -10.507812 13.296875 -9.863281 13.296875 -9.125 C 13.296875 -8.125 12.96875 -7.273438 12.3125 -6.578125 C 11.65625 -5.890625 10.765625 -5.457031 9.640625 -5.28125 L 12.125 0 Z M 7.90625 -6.9375 C 8.78125 -6.9375 9.441406 -7.109375 9.890625 -7.453125 C 10.347656 -7.804688 10.578125 -8.3125 10.578125 -8.96875 C 10.578125 -9.53125 10.382812 -9.957031 10 -10.25 C 9.613281 -10.550781 9.070312 -10.703125 8.375 -10.703125 L 5.078125 -10.703125 L 4.34375 -6.9375 Z M 7.90625 -6.9375 "/></g></g></g><g fill="#ffffff" fill-opacity="1"><g transform="translate(100.166028, 79.357757)"><g><path d="M 6.234375 -1.90625 C 7.234375 -1.90625 7.992188 -2.132812 8.515625 -2.59375 C 9.035156 -3.0625 9.394531 -3.832031 9.59375 -4.90625 L 11.125 -12.78125 L 13.796875 -12.78125 L 12.25 -4.8125 C 11.914062 -3.113281 11.25 -1.851562 10.25 -1.03125 C 9.25 -0.21875 7.863281 0.1875 6.09375 0.1875 C 4.5 0.1875 3.265625 -0.164062 2.390625 -0.875 C 1.515625 -1.59375 1.078125 -2.601562 1.078125 -3.90625 C 1.078125 -4.175781 1.097656 -4.492188 1.140625 -4.859375 C 1.191406 -5.234375 1.238281 -5.535156 1.28125 -5.765625 L 2.625 -12.78125 L 5.3125 -12.78125 L 3.921875 -5.4375 C 3.804688 -4.90625 3.75 -4.382812 3.75 -3.875 C 3.75 -3.25 3.96875 -2.765625 4.40625 -2.421875 C 4.851562 -2.078125 5.460938 -1.90625 6.234375 -1.90625 Z M 6.234375 -1.90625 "/></g></g></g><g fill="#ffffff" fill-opacity="1"><g transform="translate(111.964591, 79.357757)"><g><path d="M 10.9375 0 L 12.5 -8.015625 C 12.65625 -8.804688 12.878906 -9.78125 13.171875 -10.9375 L 12.546875 -9.5625 C 12.066406 -8.507812 11.722656 -7.789062 11.515625 -7.40625 L 7.78125 0 L 5.875 0 L 5.015625 -7.421875 C 4.828125 -9.179688 4.707031 -10.351562 4.65625 -10.9375 C 4.488281 -9.46875 4.359375 -8.503906 4.265625 -8.046875 L 2.703125 0 L 0.328125 0 L 2.8125 -12.78125 L 6.390625 -12.78125 L 7.1875 -5.640625 L 7.421875 -3.125 C 7.640625 -3.613281 7.84375 -4.050781 8.03125 -4.4375 C 8.21875 -4.832031 9.617188 -7.613281 12.234375 -12.78125 L 15.796875 -12.78125 L 13.3125 0 Z M 10.9375 0 "/></g></g></g><g fill="#ffffff" fill-opacity="1"><g transform="translate(125.822115, 79.357757)"><g><path d="M 8.015625 0 L 4.625 -10.265625 C 4.488281 -9.285156 4.375 -8.5625 4.28125 -8.09375 L 2.703125 0 L 0.328125 0 L 2.8125 -12.78125 L 5.984375 -12.78125 L 9.40625 -2.4375 L 9.515625 -3.171875 C 9.578125 -3.671875 9.664062 -4.195312 9.78125 -4.75 L 11.359375 -12.78125 L 13.734375 -12.78125 L 11.25 0 Z M 8.015625 0 "/></g></g></g><g fill="#ffffff" fill-opacity="1"><g transform="translate(137.620678, 79.357757)"><g><path d="M 0.328125 0 L 2.796875 -12.78125 L 12.859375 -12.78125 L 12.453125 -10.71875 L 5.078125 -10.71875 L 4.453125 -7.5 L 11.28125 -7.5 L 10.875 -5.4375 L 4.0625 -5.4375 L 3.40625 -2.0625 L 11.15625 -2.0625 L 10.734375 0 Z M 0.328125 0 "/></g></g></g><g fill="#ffffff" fill-opacity="1"><g transform="translate(148.394292, 79.357757)"><g><path d="M 8.125 -10.71875 L 6.03125 0 L 3.359375 0 L 5.4375 -10.71875 L 1.3125 -10.71875 L 1.71875 -12.78125 L 12.65625 -12.78125 L 12.25 -10.71875 Z M 8.125 -10.71875 "/></g></g></g><g fill="#fff7f7" fill-opacity="1"><g transform="translate(52.520186, 57.141027)"><g><path d="M 2.140625 -2.828125 L 1.265625 0 L 0.75 0 L -0.125 -2.828125 L 0.34375 -2.828125 L 1.015625 -0.59375 L 1.671875 -2.828125 Z M 2.140625 -2.828125 "/></g></g></g><g fill="#fff7f7" fill-opacity="1"><g transform="translate(55.513456, 57.141027)"><g><path d="M -0.078125 -1.421875 C -0.078125 -1.609375 -0.0546875 -1.789062 -0.015625 -1.96875 C 0.0234375 -2.144531 0.0859375 -2.296875 0.171875 -2.421875 C 0.265625 -2.554688 0.378906 -2.664062 0.515625 -2.75 C 0.648438 -2.832031 0.816406 -2.875 1.015625 -2.875 C 1.203125 -2.875 1.363281 -2.832031 1.5 -2.75 C 1.644531 -2.664062 1.757812 -2.554688 1.84375 -2.421875 C 1.9375 -2.296875 2 -2.144531 2.03125 -1.96875 C 2.070312 -1.789062 2.09375 -1.609375 2.09375 -1.421875 C 2.09375 -1.222656 2.070312 -1.035156 2.03125 -0.859375 C 2 -0.691406 1.9375 -0.535156 1.84375 -0.390625 C 1.757812 -0.253906 1.648438 -0.144531 1.515625 -0.0625 C 1.378906 0.0078125 1.210938 0.046875 1.015625 0.046875 C 0.816406 0.046875 0.644531 0.0078125 0.5 -0.0625 C 0.363281 -0.144531 0.253906 -0.253906 0.171875 -0.390625 C 0.0859375 -0.535156 0.0234375 -0.691406 -0.015625 -0.859375 C -0.0546875 -1.035156 -0.078125 -1.222656 -0.078125 -1.421875 Z M 0.375 -1.421875 C 0.375 -1.285156 0.382812 -1.15625 0.40625 -1.03125 C 0.425781 -0.90625 0.457031 -0.789062 0.5 -0.6875 C 0.550781 -0.59375 0.617188 -0.515625 0.703125 -0.453125 C 0.785156 -0.390625 0.890625 -0.359375 1.015625 -0.359375 C 1.140625 -0.359375 1.242188 -0.390625 1.328125 -0.453125 C 1.410156 -0.515625 1.472656 -0.59375 1.515625 -0.6875 C 1.566406 -0.789062 1.597656 -0.90625 1.609375 -1.03125 C 1.628906 -1.15625 1.640625 -1.285156 1.640625 -1.421875 C 1.640625 -1.546875 1.628906 -1.671875 1.609375 -1.796875 C 1.597656 -1.921875 1.566406 -2.03125 1.515625 -2.125 C 1.472656 -2.226562 1.410156 -2.3125 1.328125 -2.375 C 1.242188 -2.4375 1.140625 -2.46875 1.015625 -2.46875 C 0.804688 -2.46875 0.644531 -2.375 0.53125 -2.1875 C 0.425781 -2 0.375 -1.742188 0.375 -1.421875 Z M 0.375 -1.421875 "/></g></g></g><g fill="#fff7f7" fill-opacity="1"><g transform="translate(58.506727, 57.141027)"><g><path d="M 1.90625 -1 C 1.90625 -0.84375 1.890625 -0.695312 1.859375 -0.5625 C 1.828125 -0.4375 1.769531 -0.328125 1.6875 -0.234375 C 1.613281 -0.148438 1.519531 -0.0820312 1.40625 -0.03125 C 1.289062 0.0195312 1.15625 0.046875 1 0.046875 C 0.84375 0.046875 0.707031 0.0195312 0.59375 -0.03125 C 0.488281 -0.0820312 0.398438 -0.148438 0.328125 -0.234375 C 0.253906 -0.328125 0.195312 -0.4375 0.15625 -0.5625 C 0.125 -0.695312 0.109375 -0.847656 0.109375 -1.015625 L 0.109375 -2.828125 L 0.5625 -2.828125 L 0.5625 -1 C 0.5625 -0.9375 0.5625 -0.863281 0.5625 -0.78125 C 0.570312 -0.707031 0.59375 -0.640625 0.625 -0.578125 C 0.65625 -0.515625 0.703125 -0.460938 0.765625 -0.421875 C 0.828125 -0.378906 0.90625 -0.359375 1 -0.359375 C 1.101562 -0.359375 1.179688 -0.378906 1.234375 -0.421875 C 1.296875 -0.460938 1.34375 -0.515625 1.375 -0.578125 C 1.414062 -0.640625 1.441406 -0.707031 1.453125 -0.78125 C 1.460938 -0.863281 1.46875 -0.9375 1.46875 -1 L 1.46875 -2.828125 L 1.90625 -2.828125 Z M 1.90625 -1 "/></g></g></g><g fill="#fff7f7" fill-opacity="1"><g transform="translate(61.499997, 57.141027)"><g><path d="M 1.953125 -0.78125 C 1.953125 -0.644531 1.925781 -0.523438 1.875 -0.421875 C 1.832031 -0.328125 1.773438 -0.242188 1.703125 -0.171875 C 1.628906 -0.0976562 1.539062 -0.0390625 1.4375 0 C 1.332031 0.03125 1.21875 0.046875 1.09375 0.046875 C 0.957031 0.046875 0.835938 0.0234375 0.734375 -0.015625 C 0.628906 -0.0664062 0.539062 -0.148438 0.46875 -0.265625 L 0.46875 0 L 0.0625 0 L 0.0625 -0.921875 L 0.46875 -0.921875 C 0.46875 -0.828125 0.484375 -0.742188 0.515625 -0.671875 C 0.546875 -0.609375 0.585938 -0.550781 0.640625 -0.5 C 0.691406 -0.445312 0.753906 -0.40625 0.828125 -0.375 C 0.898438 -0.351562 0.972656 -0.34375 1.046875 -0.34375 C 1.179688 -0.34375 1.289062 -0.375 1.375 -0.4375 C 1.457031 -0.5 1.5 -0.597656 1.5 -0.734375 C 1.5 -0.804688 1.484375 -0.867188 1.453125 -0.921875 C 1.429688 -0.972656 1.394531 -1.019531 1.34375 -1.0625 C 1.300781 -1.101562 1.242188 -1.132812 1.171875 -1.15625 C 1.109375 -1.1875 1.035156 -1.21875 0.953125 -1.25 C 0.847656 -1.289062 0.742188 -1.332031 0.640625 -1.375 C 0.535156 -1.414062 0.441406 -1.46875 0.359375 -1.53125 C 0.285156 -1.59375 0.222656 -1.671875 0.171875 -1.765625 C 0.117188 -1.859375 0.09375 -1.976562 0.09375 -2.125 C 0.09375 -2.25 0.113281 -2.359375 0.15625 -2.453125 C 0.207031 -2.546875 0.269531 -2.625 0.34375 -2.6875 C 0.414062 -2.75 0.503906 -2.796875 0.609375 -2.828125 C 0.710938 -2.859375 0.816406 -2.875 0.921875 -2.875 C 1.054688 -2.875 1.171875 -2.84375 1.265625 -2.78125 C 1.359375 -2.726562 1.429688 -2.660156 1.484375 -2.578125 L 1.484375 -2.828125 L 1.875 -2.828125 L 1.875 -1.953125 L 1.484375 -1.953125 C 1.484375 -2.117188 1.4375 -2.25 1.34375 -2.34375 C 1.257812 -2.4375 1.144531 -2.484375 1 -2.484375 C 0.863281 -2.484375 0.753906 -2.453125 0.671875 -2.390625 C 0.585938 -2.328125 0.546875 -2.238281 0.546875 -2.125 C 0.546875 -2.070312 0.554688 -2.023438 0.578125 -1.984375 C 0.597656 -1.941406 0.628906 -1.90625 0.671875 -1.875 C 0.710938 -1.84375 0.765625 -1.8125 0.828125 -1.78125 C 0.898438 -1.757812 0.976562 -1.726562 1.0625 -1.6875 C 1.164062 -1.65625 1.269531 -1.613281 1.375 -1.5625 C 1.476562 -1.519531 1.570312 -1.460938 1.65625 -1.390625 C 1.738281 -1.316406 1.804688 -1.226562 1.859375 -1.125 C 1.921875 -1.03125 1.953125 -0.914062 1.953125 -0.78125 Z M 1.953125 -0.78125 "/></g></g></g><g fill="#fff7f7" fill-opacity="1"><g transform="translate(64.493268, 57.141027)"><g/></g></g><g fill="#fff7f7" fill-opacity="1"><g transform="translate(67.486539, 57.141027)"><g><path d="M 1.90625 0 L 0.109375 0 L 0.109375 -2.828125 L 1.90625 -2.828125 L 1.90625 -2.421875 L 0.5625 -2.421875 L 0.5625 -1.640625 L 1.609375 -1.640625 L 1.609375 -1.234375 L 0.5625 -1.234375 L 0.5625 -0.40625 L 1.90625 -0.40625 Z M 1.71875 -3.34375 L 1.546875 -3.125 L 1.015625 -3.578125 L 0.484375 -3.125 L 0.3125 -3.34375 L 1.015625 -4.03125 Z M 1.71875 -3.34375 "/></g></g></g><g fill="#fff7f7" fill-opacity="1"><g transform="translate(70.47981, 57.141027)"><g><path d="M 2.015625 -1.796875 L 1.609375 -1.796875 L 1.609375 -2.421875 L 1.234375 -2.421875 L 1.234375 -0.40625 L 1.6875 -0.40625 L 1.6875 0 L 0.34375 0 L 0.34375 -0.40625 L 0.78125 -0.40625 L 0.78125 -2.421875 L 0.40625 -2.421875 L 0.40625 -1.796875 L 0 -1.796875 L 0 -2.828125 L 2.015625 -2.828125 Z M 2.015625 -1.796875 "/></g></g></g><g fill="#fff7f7" fill-opacity="1"><g transform="translate(73.47308, 57.141027)"><g><path d="M 1.90625 0 L 0.109375 0 L 0.109375 -2.828125 L 1.90625 -2.828125 L 1.90625 -2.421875 L 0.5625 -2.421875 L 0.5625 -1.640625 L 1.609375 -1.640625 L 1.609375 -1.234375 L 0.5625 -1.234375 L 0.5625 -0.40625 L 1.90625 -0.40625 Z M 1.90625 0 "/></g></g></g><g fill="#fff7f7" fill-opacity="1"><g transform="translate(76.466351, 57.141027)"><g><path d="M 1.953125 -0.78125 C 1.953125 -0.644531 1.925781 -0.523438 1.875 -0.421875 C 1.832031 -0.328125 1.773438 -0.242188 1.703125 -0.171875 C 1.628906 -0.0976562 1.539062 -0.0390625 1.4375 0 C 1.332031 0.03125 1.21875 0.046875 1.09375 0.046875 C 0.957031 0.046875 0.835938 0.0234375 0.734375 -0.015625 C 0.628906 -0.0664062 0.539062 -0.148438 0.46875 -0.265625 L 0.46875 0 L 0.0625 0 L 0.0625 -0.921875 L 0.46875 -0.921875 C 0.46875 -0.828125 0.484375 -0.742188 0.515625 -0.671875 C 0.546875 -0.609375 0.585938 -0.550781 0.640625 -0.5 C 0.691406 -0.445312 0.753906 -0.40625 0.828125 -0.375 C 0.898438 -0.351562 0.972656 -0.34375 1.046875 -0.34375 C 1.179688 -0.34375 1.289062 -0.375 1.375 -0.4375 C 1.457031 -0.5 1.5 -0.597656 1.5 -0.734375 C 1.5 -0.804688 1.484375 -0.867188 1.453125 -0.921875 C 1.429688 -0.972656 1.394531 -1.019531 1.34375 -1.0625 C 1.300781 -1.101562 1.242188 -1.132812 1.171875 -1.15625 C 1.109375 -1.1875 1.035156 -1.21875 0.953125 -1.25 C 0.847656 -1.289062 0.742188 -1.332031 0.640625 -1.375 C 0.535156 -1.414062 0.441406 -1.46875 0.359375 -1.53125 C 0.285156 -1.59375 0.222656 -1.671875 0.171875 -1.765625 C 0.117188 -1.859375 0.09375 -1.976562 0.09375 -2.125 C 0.09375 -2.25 0.113281 -2.359375 0.15625 -2.453125 C 0.207031 -2.546875 0.269531 -2.625 0.34375 -2.6875 C 0.414062 -2.75 0.503906 -2.796875 0.609375 -2.828125 C 0.710938 -2.859375 0.816406 -2.875 0.921875 -2.875 C 1.054688 -2.875 1.171875 -2.84375 1.265625 -2.78125 C 1.359375 -2.726562 1.429688 -2.660156 1.484375 -2.578125 L 1.484375 -2.828125 L 1.875 -2.828125 L 1.875 -1.953125 L 1.484375 -1.953125 C 1.484375 -2.117188 1.4375 -2.25 1.34375 -2.34375 C 1.257812 -2.4375 1.144531 -2.484375 1 -2.484375 C 0.863281 -2.484375 0.753906 -2.453125 0.671875 -2.390625 C 0.585938 -2.328125 0.546875 -2.238281 0.546875 -2.125 C 0.546875 -2.070312 0.554688 -2.023438 0.578125 -1.984375 C 0.597656 -1.941406 0.628906 -1.90625 0.671875 -1.875 C 0.710938 -1.84375 0.765625 -1.8125 0.828125 -1.78125 C 0.898438 -1.757812 0.976562 -1.726562 1.0625 -1.6875 C 1.164062 -1.65625 1.269531 -1.613281 1.375 -1.5625 C 1.476562 -1.519531 1.570312 -1.460938 1.65625 -1.390625 C 1.738281 -1.316406 1.804688 -1.226562 1.859375 -1.125 C 1.921875 -1.03125 1.953125 -0.914062 1.953125 -0.78125 Z M 1.953125 -0.78125 "/></g></g></g><g fill="#fff7f7" fill-opacity="1"><g transform="translate(79.459622, 57.141027)"><g/></g></g><g fill="#fff7f7" fill-opacity="1"><g transform="translate(82.452893, 57.141027)"><g><path d="M 1.6875 0 L 0.34375 0 L 0.34375 -0.40625 L 0.78125 -0.40625 L 0.78125 -2.421875 L 0.34375 -2.421875 L 0.34375 -2.828125 L 1.6875 -2.828125 L 1.6875 -2.421875 L 1.234375 -2.421875 L 1.234375 -0.40625 L 1.6875 -0.40625 Z M 1.6875 0 "/></g></g></g><g fill="#fff7f7" fill-opacity="1"><g transform="translate(85.446164, 57.141027)"><g><path d="M 1.90625 0 L 1.390625 0 L 0.5625 -2.046875 L 0.5625 0 L 0.109375 0 L 0.109375 -2.828125 L 0.671875 -2.828125 L 1.46875 -0.875 L 1.46875 -2.828125 L 1.90625 -2.828125 Z M 1.90625 0 "/></g></g></g><g fill="#fff7f7" fill-opacity="1"><g transform="translate(88.439435, 57.141027)"><g><path d="M 2.140625 -2.828125 L 1.265625 0 L 0.75 0 L -0.125 -2.828125 L 0.34375 -2.828125 L 1.015625 -0.59375 L 1.671875 -2.828125 Z M 2.140625 -2.828125 "/></g></g></g><g fill="#fff7f7" fill-opacity="1"><g transform="translate(91.432704, 57.141027)"><g><path d="M 1.6875 0 L 0.34375 0 L 0.34375 -0.40625 L 0.78125 -0.40625 L 0.78125 -2.421875 L 0.34375 -2.421875 L 0.34375 -2.828125 L 1.6875 -2.828125 L 1.6875 -2.421875 L 1.234375 -2.421875 L 1.234375 -0.40625 L 1.6875 -0.40625 Z M 1.6875 0 "/></g></g></g><g fill="#fff7f7" fill-opacity="1"><g transform="translate(94.425974, 57.141027)"><g><path d="M 2.015625 -1.796875 L 1.609375 -1.796875 L 1.609375 -2.421875 L 1.234375 -2.421875 L 1.234375 -0.40625 L 1.6875 -0.40625 L 1.6875 0 L 0.34375 0 L 0.34375 -0.40625 L 0.78125 -0.40625 L 0.78125 -2.421875 L 0.40625 -2.421875 L 0.40625 -1.796875 L 0 -1.796875 L 0 -2.828125 L 2.015625 -2.828125 Z M 2.015625 -1.796875 "/></g></g></g><g fill="#fff7f7" fill-opacity="1"><g transform="translate(97.419245, 57.141027)"><g><path d="M 1.90625 0 L 0.109375 0 L 0.109375 -2.828125 L 1.90625 -2.828125 L 1.90625 -2.421875 L 0.5625 -2.421875 L 0.5625 -1.640625 L 1.609375 -1.640625 L 1.609375 -1.234375 L 0.5625 -1.234375 L 0.5625 -0.40625 L 1.90625 -0.40625 Z M 1.546875 -3.65625 L 0.609375 -3.125 L 0.40625 -3.421875 L 1.28125 -4.046875 Z M 1.546875 -3.65625 "/></g></g></g><g fill="#fff7f7" fill-opacity="1"><g transform="translate(100.412516, 57.141027)"><g><path d="M 1.953125 -0.78125 C 1.953125 -0.644531 1.925781 -0.523438 1.875 -0.421875 C 1.832031 -0.328125 1.773438 -0.242188 1.703125 -0.171875 C 1.628906 -0.0976562 1.539062 -0.0390625 1.4375 0 C 1.332031 0.03125 1.21875 0.046875 1.09375 0.046875 C 0.957031 0.046875 0.835938 0.0234375 0.734375 -0.015625 C 0.628906 -0.0664062 0.539062 -0.148438 0.46875 -0.265625 L 0.46875 0 L 0.0625 0 L 0.0625 -0.921875 L 0.46875 -0.921875 C 0.46875 -0.828125 0.484375 -0.742188 0.515625 -0.671875 C 0.546875 -0.609375 0.585938 -0.550781 0.640625 -0.5 C 0.691406 -0.445312 0.753906 -0.40625 0.828125 -0.375 C 0.898438 -0.351562 0.972656 -0.34375 1.046875 -0.34375 C 1.179688 -0.34375 1.289062 -0.375 1.375 -0.4375 C 1.457031 -0.5 1.5 -0.597656 1.5 -0.734375 C 1.5 -0.804688 1.484375 -0.867188 1.453125 -0.921875 C 1.429688 -0.972656 1.394531 -1.019531 1.34375 -1.0625 C 1.300781 -1.101562 1.242188 -1.132812 1.171875 -1.15625 C 1.109375 -1.1875 1.035156 -1.21875 0.953125 -1.25 C 0.847656 -1.289062 0.742188 -1.332031 0.640625 -1.375 C 0.535156 -1.414062 0.441406 -1.46875 0.359375 -1.53125 C 0.285156 -1.59375 0.222656 -1.671875 0.171875 -1.765625 C 0.117188 -1.859375 0.09375 -1.976562 0.09375 -2.125 C 0.09375 -2.25 0.113281 -2.359375 0.15625 -2.453125 C 0.207031 -2.546875 0.269531 -2.625 0.34375 -2.6875 C 0.414062 -2.75 0.503906 -2.796875 0.609375 -2.828125 C 0.710938 -2.859375 0.816406 -2.875 0.921875 -2.875 C 1.054688 -2.875 1.171875 -2.84375 1.265625 -2.78125 C 1.359375 -2.726562 1.429688 -2.660156 1.484375 -2.578125 L 1.484375 -2.828125 L 1.875 -2.828125 L 1.875 -1.953125 L 1.484375 -1.953125 C 1.484375 -2.117188 1.4375 -2.25 1.34375 -2.34375 C 1.257812 -2.4375 1.144531 -2.484375 1 -2.484375 C 0.863281 -2.484375 0.753906 -2.453125 0.671875 -2.390625 C 0.585938 -2.328125 0.546875 -2.238281 0.546875 -2.125 C 0.546875 -2.070312 0.554688 -2.023438 0.578125 -1.984375 C 0.597656 -1.941406 0.628906 -1.90625 0.671875 -1.875 C 0.710938 -1.84375 0.765625 -1.8125 0.828125 -1.78125 C 0.898438 -1.757812 0.976562 -1.726562 1.0625 -1.6875 C 1.164062 -1.65625 1.269531 -1.613281 1.375 -1.5625 C 1.476562 -1.519531 1.570312 -1.460938 1.65625 -1.390625 C 1.738281 -1.316406 1.804688 -1.226562 1.859375 -1.125 C 1.921875 -1.03125 1.953125 -0.914062 1.953125 -0.78125 Z M 1.953125 -0.78125 "/></g></g></g><g fill="#fff7f7" fill-opacity="1"><g transform="translate(103.405787, 57.141027)"><g/></g></g><g fill="#fff7f7" fill-opacity="1"><g transform="translate(106.399058, 57.141027)"><g><path d="M 1.6875 0 L 1.484375 -0.671875 L 0.546875 -0.671875 L 0.34375 0 L -0.125 0 L 0.75 -2.828125 L 1.265625 -2.828125 L 2.15625 0 Z M 0.65625 -1.078125 L 1.359375 -1.078125 L 1.015625 -2.234375 Z M 0.75 -4.046875 L 1.625 -3.421875 L 1.421875 -3.125 L 0.484375 -3.65625 Z M 0.75 -4.046875 "/></g></g></g><g fill="#fff7f7" fill-opacity="1"><g transform="translate(109.392329, 57.141027)"><g/></g></g><g fill="#fff7f7" fill-opacity="1"><g transform="translate(112.3856, 57.141027)"><g><path d="M 1.90625 0 L 1.390625 0 L 0.5625 -2.046875 L 0.5625 0 L 0.109375 0 L 0.109375 -2.828125 L 0.671875 -2.828125 L 1.46875 -0.875 L 1.46875 -2.828125 L 1.90625 -2.828125 Z M 1.90625 0 "/></g></g></g><g fill="#fff7f7" fill-opacity="1"><g transform="translate(115.378871, 57.141027)"><g><path d="M -0.078125 -1.421875 C -0.078125 -1.609375 -0.0546875 -1.789062 -0.015625 -1.96875 C 0.0234375 -2.144531 0.0859375 -2.296875 0.171875 -2.421875 C 0.265625 -2.554688 0.378906 -2.664062 0.515625 -2.75 C 0.648438 -2.832031 0.816406 -2.875 1.015625 -2.875 C 1.203125 -2.875 1.363281 -2.832031 1.5 -2.75 C 1.644531 -2.664062 1.757812 -2.554688 1.84375 -2.421875 C 1.9375 -2.296875 2 -2.144531 2.03125 -1.96875 C 2.070312 -1.789062 2.09375 -1.609375 2.09375 -1.421875 C 2.09375 -1.222656 2.070312 -1.035156 2.03125 -0.859375 C 2 -0.691406 1.9375 -0.535156 1.84375 -0.390625 C 1.757812 -0.253906 1.648438 -0.144531 1.515625 -0.0625 C 1.378906 0.0078125 1.210938 0.046875 1.015625 0.046875 C 0.816406 0.046875 0.644531 0.0078125 0.5 -0.0625 C 0.363281 -0.144531 0.253906 -0.253906 0.171875 -0.390625 C 0.0859375 -0.535156 0.0234375 -0.691406 -0.015625 -0.859375 C -0.0546875 -1.035156 -0.078125 -1.222656 -0.078125 -1.421875 Z M 0.375 -1.421875 C 0.375 -1.285156 0.382812 -1.15625 0.40625 -1.03125 C 0.425781 -0.90625 0.457031 -0.789062 0.5 -0.6875 C 0.550781 -0.59375 0.617188 -0.515625 0.703125 -0.453125 C 0.785156 -0.390625 0.890625 -0.359375 1.015625 -0.359375 C 1.140625 -0.359375 1.242188 -0.390625 1.328125 -0.453125 C 1.410156 -0.515625 1.472656 -0.59375 1.515625 -0.6875 C 1.566406 -0.789062 1.597656 -0.90625 1.609375 -1.03125 C 1.628906 -1.15625 1.640625 -1.285156 1.640625 -1.421875 C 1.640625 -1.546875 1.628906 -1.671875 1.609375 -1.796875 C 1.597656 -1.921875 1.566406 -2.03125 1.515625 -2.125 C 1.472656 -2.226562 1.410156 -2.3125 1.328125 -2.375 C 1.242188 -2.4375 1.140625 -2.46875 1.015625 -2.46875 C 0.804688 -2.46875 0.644531 -2.375 0.53125 -2.1875 C 0.425781 -2 0.375 -1.742188 0.375 -1.421875 Z M 0.375 -1.421875 "/></g></g></g><g fill="#fff7f7" fill-opacity="1"><g transform="translate(118.372142, 57.141027)"><g><path d="M 2.015625 -1.796875 L 1.609375 -1.796875 L 1.609375 -2.421875 L 1.234375 -2.421875 L 1.234375 -0.40625 L 1.6875 -0.40625 L 1.6875 0 L 0.34375 0 L 0.34375 -0.40625 L 0.78125 -0.40625 L 0.78125 -2.421875 L 0.40625 -2.421875 L 0.40625 -1.796875 L 0 -1.796875 L 0 -2.828125 L 2.015625 -2.828125 Z M 2.015625 -1.796875 "/></g></g></g><g fill="#fff7f7" fill-opacity="1"><g transform="translate(121.365413, 57.141027)"><g><path d="M 2.0625 0 L 1.484375 0 L 0.765625 -1.140625 L 0.5625 -1.140625 L 0.5625 0 L 0.109375 0 L 0.109375 -2.828125 L 1.03125 -2.828125 C 1.34375 -2.828125 1.582031 -2.753906 1.75 -2.609375 C 1.925781 -2.472656 2.015625 -2.265625 2.015625 -1.984375 C 2.015625 -1.859375 1.992188 -1.75 1.953125 -1.65625 C 1.921875 -1.5625 1.867188 -1.476562 1.796875 -1.40625 C 1.722656 -1.34375 1.640625 -1.289062 1.546875 -1.25 C 1.460938 -1.207031 1.363281 -1.179688 1.25 -1.171875 Z M 1.578125 -1.984375 C 1.578125 -2.128906 1.523438 -2.238281 1.421875 -2.3125 C 1.328125 -2.382812 1.195312 -2.421875 1.03125 -2.421875 L 0.5625 -2.421875 L 0.5625 -1.546875 L 1.03125 -1.546875 C 1.195312 -1.546875 1.328125 -1.582031 1.421875 -1.65625 C 1.523438 -1.726562 1.578125 -1.835938 1.578125 -1.984375 Z M 1.578125 -1.984375 "/></g></g></g><g fill="#fff7f7" fill-opacity="1"><g transform="translate(124.358684, 57.141027)"><g><path d="M 1.90625 0 L 0.109375 0 L 0.109375 -2.828125 L 1.90625 -2.828125 L 1.90625 -2.421875 L 0.5625 -2.421875 L 0.5625 -1.640625 L 1.609375 -1.640625 L 1.609375 -1.234375 L 0.5625 -1.234375 L 0.5625 -0.40625 L 1.90625 -0.40625 Z M 1.90625 0 "/></g></g></g><g fill="#ffffff" fill-opacity="1"><g transform="translate(52.471995, 89.724438)"><g><path d="M 1.796875 -1.203125 C 1.796875 -1.046875 1.78125 -0.894531 1.75 -0.75 C 1.71875 -0.613281 1.671875 -0.488281 1.609375 -0.375 C 1.546875 -0.257812 1.460938 -0.164062 1.359375 -0.09375 C 1.253906 -0.0195312 1.128906 0.0195312 0.984375 0.03125 C 1.003906 0.195312 1.054688 0.3125 1.140625 0.375 C 1.234375 0.4375 1.363281 0.46875 1.53125 0.46875 C 1.570312 0.46875 1.609375 0.46875 1.640625 0.46875 C 1.671875 0.46875 1.703125 0.46875 1.734375 0.46875 L 1.734375 0.6875 C 1.691406 0.6875 1.65625 0.6875 1.625 0.6875 C 1.59375 0.6875 1.5625 0.6875 1.53125 0.6875 C 1.28125 0.6875 1.085938 0.628906 0.953125 0.515625 C 0.828125 0.410156 0.75 0.25 0.71875 0.03125 C 0.582031 0.0078125 0.460938 -0.03125 0.359375 -0.09375 C 0.265625 -0.164062 0.1875 -0.257812 0.125 -0.375 C 0.0625 -0.488281 0.015625 -0.613281 -0.015625 -0.75 C -0.046875 -0.894531 -0.0625 -1.046875 -0.0625 -1.203125 C -0.0625 -1.367188 -0.046875 -1.523438 -0.015625 -1.671875 C 0.015625 -1.828125 0.0664062 -1.960938 0.140625 -2.078125 C 0.222656 -2.191406 0.320312 -2.28125 0.4375 -2.34375 C 0.550781 -2.414062 0.691406 -2.453125 0.859375 -2.453125 C 1.023438 -2.453125 1.164062 -2.414062 1.28125 -2.34375 C 1.40625 -2.28125 1.503906 -2.191406 1.578125 -2.078125 C 1.648438 -1.960938 1.703125 -1.828125 1.734375 -1.671875 C 1.773438 -1.523438 1.796875 -1.367188 1.796875 -1.203125 Z M 1.53125 -1.203125 C 1.53125 -1.328125 1.519531 -1.445312 1.5 -1.5625 C 1.476562 -1.6875 1.441406 -1.800781 1.390625 -1.90625 C 1.347656 -2.007812 1.28125 -2.09375 1.1875 -2.15625 C 1.101562 -2.21875 0.992188 -2.25 0.859375 -2.25 C 0.734375 -2.25 0.625 -2.21875 0.53125 -2.15625 C 0.445312 -2.09375 0.378906 -2.007812 0.328125 -1.90625 C 0.273438 -1.800781 0.238281 -1.6875 0.21875 -1.5625 C 0.195312 -1.445312 0.1875 -1.328125 0.1875 -1.203125 C 0.1875 -0.878906 0.242188 -0.625 0.359375 -0.4375 C 0.484375 -0.257812 0.648438 -0.171875 0.859375 -0.171875 C 1.078125 -0.171875 1.242188 -0.257812 1.359375 -0.4375 C 1.472656 -0.625 1.53125 -0.878906 1.53125 -1.203125 Z M 1.53125 -1.203125 "/></g></g></g><g fill="#ffffff" fill-opacity="1"><g transform="translate(54.805125, 89.724438)"><g><path d="M 1.640625 -0.859375 C 1.640625 -0.722656 1.625 -0.597656 1.59375 -0.484375 C 1.5625 -0.378906 1.515625 -0.285156 1.453125 -0.203125 C 1.390625 -0.128906 1.304688 -0.0664062 1.203125 -0.015625 C 1.109375 0.0234375 0.992188 0.046875 0.859375 0.046875 C 0.722656 0.046875 0.609375 0.0234375 0.515625 -0.015625 C 0.421875 -0.0664062 0.34375 -0.128906 0.28125 -0.203125 C 0.21875 -0.285156 0.171875 -0.378906 0.140625 -0.484375 C 0.109375 -0.597656 0.09375 -0.722656 0.09375 -0.859375 L 0.09375 -2.421875 L 0.34375 -2.421875 L 0.34375 -0.859375 C 0.34375 -0.785156 0.347656 -0.707031 0.359375 -0.625 C 0.378906 -0.550781 0.40625 -0.476562 0.4375 -0.40625 C 0.476562 -0.34375 0.53125 -0.285156 0.59375 -0.234375 C 0.664062 -0.191406 0.753906 -0.171875 0.859375 -0.171875 C 0.972656 -0.171875 1.0625 -0.191406 1.125 -0.234375 C 1.195312 -0.285156 1.25 -0.34375 1.28125 -0.40625 C 1.320312 -0.476562 1.347656 -0.550781 1.359375 -0.625 C 1.367188 -0.707031 1.375 -0.785156 1.375 -0.859375 L 1.375 -2.421875 L 1.640625 -2.421875 Z M 1.640625 -0.859375 "/></g></g></g><g fill="#ffffff" fill-opacity="1"><g transform="translate(57.142759, 89.724438)"><g><path d="M 1.375 0 L 0.34375 0 L 0.34375 -0.21875 L 0.734375 -0.21875 L 0.734375 -2.203125 L 0.34375 -2.203125 L 0.34375 -2.421875 L 1.375 -2.421875 L 1.375 -2.203125 L 0.984375 -2.203125 L 0.984375 -0.21875 L 1.375 -0.21875 Z M 1.375 0 "/></g></g></g><g fill="#ffffff" fill-opacity="1"><g transform="translate(59.480392, 89.724438)"><g/></g></g><g fill="#ffffff" fill-opacity="1"><g transform="translate(61.818026, 89.724438)"><g><path d="M 1.84375 0 L 1.578125 0 L 1.34375 -0.6875 L 0.390625 -0.6875 L 0.15625 0 L -0.109375 0 L 0.6875 -2.421875 L 1.046875 -2.421875 Z M 1.265625 -0.921875 L 0.859375 -2.15625 L 0.453125 -0.921875 Z M 1.265625 -0.921875 "/></g></g></g><g fill="#ffffff" fill-opacity="1"><g transform="translate(64.155659, 89.724438)"><g><path d="M 1.640625 -0.859375 C 1.640625 -0.722656 1.625 -0.597656 1.59375 -0.484375 C 1.5625 -0.378906 1.515625 -0.285156 1.453125 -0.203125 C 1.390625 -0.128906 1.304688 -0.0664062 1.203125 -0.015625 C 1.109375 0.0234375 0.992188 0.046875 0.859375 0.046875 C 0.722656 0.046875 0.609375 0.0234375 0.515625 -0.015625 C 0.421875 -0.0664062 0.34375 -0.128906 0.28125 -0.203125 C 0.21875 -0.285156 0.171875 -0.378906 0.140625 -0.484375 C 0.109375 -0.597656 0.09375 -0.722656 0.09375 -0.859375 L 0.09375 -2.421875 L 0.34375 -2.421875 L 0.34375 -0.859375 C 0.34375 -0.785156 0.347656 -0.707031 0.359375 -0.625 C 0.378906 -0.550781 0.40625 -0.476562 0.4375 -0.40625 C 0.476562 -0.34375 0.53125 -0.285156 0.59375 -0.234375 C 0.664062 -0.191406 0.753906 -0.171875 0.859375 -0.171875 C 0.972656 -0.171875 1.0625 -0.191406 1.125 -0.234375 C 1.195312 -0.285156 1.25 -0.34375 1.28125 -0.40625 C 1.320312 -0.476562 1.347656 -0.550781 1.359375 -0.625 C 1.367188 -0.707031 1.375 -0.785156 1.375 -0.859375 L 1.375 -2.421875 L 1.640625 -2.421875 Z M 1.640625 -0.859375 "/></g></g></g><g fill="#ffffff" fill-opacity="1"><g transform="translate(66.493293, 89.724438)"><g><path d="M 1.75 0 L 1.421875 0 L 0.71875 -1.03125 L 0.34375 -1.03125 L 0.34375 0 L 0.09375 0 L 0.09375 -2.421875 L 0.890625 -2.421875 C 1.148438 -2.421875 1.351562 -2.363281 1.5 -2.25 C 1.644531 -2.132812 1.71875 -1.960938 1.71875 -1.734375 C 1.71875 -1.628906 1.695312 -1.535156 1.65625 -1.453125 C 1.625 -1.367188 1.578125 -1.296875 1.515625 -1.234375 C 1.460938 -1.179688 1.390625 -1.140625 1.296875 -1.109375 C 1.210938 -1.078125 1.117188 -1.054688 1.015625 -1.046875 Z M 1.453125 -1.734375 C 1.453125 -1.890625 1.398438 -2.003906 1.296875 -2.078125 C 1.203125 -2.160156 1.066406 -2.203125 0.890625 -2.203125 L 0.34375 -2.203125 L 0.34375 -1.25 L 0.890625 -1.25 C 1.066406 -1.25 1.203125 -1.285156 1.296875 -1.359375 C 1.398438 -1.441406 1.453125 -1.566406 1.453125 -1.734375 Z M 1.453125 -1.734375 "/></g></g></g><g fill="#ffffff" fill-opacity="1"><g transform="translate(68.830928, 89.724438)"><g><path d="M 1.84375 0 L 1.578125 0 L 1.34375 -0.6875 L 0.390625 -0.6875 L 0.15625 0 L -0.109375 0 L 0.6875 -2.421875 L 1.046875 -2.421875 Z M 1.265625 -0.921875 L 0.859375 -2.15625 L 0.453125 -0.921875 Z M 1.265625 -0.921875 "/></g></g></g><g fill="#ffffff" fill-opacity="1"><g transform="translate(71.168562, 89.724438)"><g/></g></g><g fill="#ffffff" fill-opacity="1"><g transform="translate(73.506196, 89.724438)"><g><path d="M 1.640625 0 L 0.09375 0 L 0.09375 -2.421875 L 0.34375 -2.421875 L 0.34375 -0.21875 L 1.640625 -0.21875 Z M 1.640625 0 "/></g></g></g><g fill="#ffffff" fill-opacity="1"><g transform="translate(75.84383, 89.724438)"><g><path d="M 1.375 0 L 0.34375 0 L 0.34375 -0.21875 L 0.734375 -0.21875 L 0.734375 -2.203125 L 0.34375 -2.203125 L 0.34375 -2.421875 L 1.375 -2.421875 L 1.375 -2.203125 L 0.984375 -2.203125 L 0.984375 -0.21875 L 1.375 -0.21875 Z M 1.375 0 "/></g></g></g><g fill="#ffffff" fill-opacity="1"><g transform="translate(78.181464, 89.724438)"><g><path d="M 1.640625 0 L 0.09375 0 L 0.09375 -2.421875 L 1.640625 -2.421875 L 1.640625 -2.203125 L 0.34375 -2.203125 L 0.34375 -1.34375 L 1.296875 -1.34375 L 1.296875 -1.125 L 0.34375 -1.125 L 0.34375 -0.21875 L 1.640625 -0.21875 Z M 1.640625 0 "/></g></g></g><g fill="#ffffff" fill-opacity="1"><g transform="translate(80.519098, 89.724438)"><g><path d="M 1.640625 -0.859375 C 1.640625 -0.722656 1.625 -0.597656 1.59375 -0.484375 C 1.5625 -0.378906 1.515625 -0.285156 1.453125 -0.203125 C 1.390625 -0.128906 1.304688 -0.0664062 1.203125 -0.015625 C 1.109375 0.0234375 0.992188 0.046875 0.859375 0.046875 C 0.722656 0.046875 0.609375 0.0234375 0.515625 -0.015625 C 0.421875 -0.0664062 0.34375 -0.128906 0.28125 -0.203125 C 0.21875 -0.285156 0.171875 -0.378906 0.140625 -0.484375 C 0.109375 -0.597656 0.09375 -0.722656 0.09375 -0.859375 L 0.09375 -2.421875 L 0.34375 -2.421875 L 0.34375 -0.859375 C 0.34375 -0.785156 0.347656 -0.707031 0.359375 -0.625 C 0.378906 -0.550781 0.40625 -0.476562 0.4375 -0.40625 C 0.476562 -0.34375 0.53125 -0.285156 0.59375 -0.234375 C 0.664062 -0.191406 0.753906 -0.171875 0.859375 -0.171875 C 0.972656 -0.171875 1.0625 -0.191406 1.125 -0.234375 C 1.195312 -0.285156 1.25 -0.34375 1.28125 -0.40625 C 1.320312 -0.476562 1.347656 -0.550781 1.359375 -0.625 C 1.367188 -0.707031 1.375 -0.785156 1.375 -0.859375 L 1.375 -2.421875 L 1.640625 -2.421875 Z M 1.640625 -0.859375 "/></g></g></g><g fill="#ffffff" fill-opacity="1"><g transform="translate(82.856732, 89.724438)"><g/></g></g><g fill="#ffffff" fill-opacity="1"><g transform="translate(85.194366, 89.724438)"><g><path d="M 1.640625 0 L 0.09375 0 L 0.09375 -2.421875 L 0.34375 -2.421875 L 0.34375 -0.21875 L 1.640625 -0.21875 Z M 1.640625 0 "/></g></g></g><g fill="#ffffff" fill-opacity="1"><g transform="translate(87.532, 89.724438)"><g><path d="M 1.640625 0 L 0.09375 0 L 0.09375 -2.421875 L 1.640625 -2.421875 L 1.640625 -2.203125 L 0.34375 -2.203125 L 0.34375 -1.34375 L 1.296875 -1.34375 L 1.296875 -1.125 L 0.34375 -1.125 L 0.34375 -0.21875 L 1.640625 -0.21875 Z M 1.640625 0 "/></g></g></g><g fill="#ffffff" fill-opacity="1"><g transform="translate(89.869634, 89.724438)"><g/></g></g><g fill="#ffffff" fill-opacity="1"><g transform="translate(92.207268, 89.724438)"><g><path d="M 1.75 -0.6875 C 1.75 -0.550781 1.722656 -0.4375 1.671875 -0.34375 C 1.628906 -0.257812 1.566406 -0.1875 1.484375 -0.125 C 1.410156 -0.0703125 1.316406 -0.03125 1.203125 0 C 1.097656 0.03125 0.984375 0.046875 0.859375 0.046875 C 0.742188 0.046875 0.628906 0.03125 0.515625 0 C 0.410156 -0.03125 0.316406 -0.0703125 0.234375 -0.125 C 0.160156 -0.1875 0.0976562 -0.257812 0.046875 -0.34375 C 0.00390625 -0.4375 -0.015625 -0.550781 -0.015625 -0.6875 C -0.015625 -0.75 -0.00390625 -0.8125 0.015625 -0.875 C 0.046875 -0.945312 0.0820312 -1.007812 0.125 -1.0625 C 0.164062 -1.125 0.21875 -1.171875 0.28125 -1.203125 C 0.351562 -1.242188 0.425781 -1.269531 0.5 -1.28125 C 0.4375 -1.289062 0.378906 -1.3125 0.328125 -1.34375 C 0.273438 -1.382812 0.226562 -1.425781 0.1875 -1.46875 C 0.15625 -1.519531 0.128906 -1.570312 0.109375 -1.625 C 0.0859375 -1.6875 0.078125 -1.742188 0.078125 -1.796875 C 0.078125 -1.910156 0.0976562 -2.007812 0.140625 -2.09375 C 0.179688 -2.175781 0.238281 -2.242188 0.3125 -2.296875 C 0.382812 -2.347656 0.46875 -2.382812 0.5625 -2.40625 C 0.65625 -2.4375 0.753906 -2.453125 0.859375 -2.453125 C 0.960938 -2.453125 1.0625 -2.4375 1.15625 -2.40625 C 1.257812 -2.382812 1.347656 -2.347656 1.421875 -2.296875 C 1.492188 -2.242188 1.550781 -2.175781 1.59375 -2.09375 C 1.632812 -2.007812 1.65625 -1.910156 1.65625 -1.796875 C 1.65625 -1.742188 1.644531 -1.6875 1.625 -1.625 C 1.601562 -1.570312 1.570312 -1.519531 1.53125 -1.46875 C 1.5 -1.425781 1.457031 -1.382812 1.40625 -1.34375 C 1.351562 -1.3125 1.289062 -1.289062 1.21875 -1.28125 C 1.300781 -1.269531 1.375 -1.242188 1.4375 -1.203125 C 1.5 -1.171875 1.550781 -1.125 1.59375 -1.0625 C 1.644531 -1.007812 1.679688 -0.945312 1.703125 -0.875 C 1.734375 -0.8125 1.75 -0.75 1.75 -0.6875 Z M 1.40625 -1.796875 C 1.40625 -1.941406 1.351562 -2.050781 1.25 -2.125 C 1.15625 -2.207031 1.023438 -2.25 0.859375 -2.25 C 0.691406 -2.25 0.5625 -2.207031 0.46875 -2.125 C 0.375 -2.050781 0.328125 -1.941406 0.328125 -1.796875 C 0.328125 -1.671875 0.367188 -1.570312 0.453125 -1.5 C 0.546875 -1.425781 0.679688 -1.390625 0.859375 -1.390625 C 1.035156 -1.390625 1.171875 -1.425781 1.265625 -1.5 C 1.359375 -1.570312 1.40625 -1.671875 1.40625 -1.796875 Z M 1.5 -0.6875 C 1.5 -0.769531 1.476562 -0.84375 1.4375 -0.90625 C 1.40625 -0.96875 1.359375 -1.015625 1.296875 -1.046875 C 1.242188 -1.085938 1.175781 -1.117188 1.09375 -1.140625 C 1.019531 -1.160156 0.941406 -1.171875 0.859375 -1.171875 C 0.773438 -1.171875 0.695312 -1.160156 0.625 -1.140625 C 0.550781 -1.117188 0.484375 -1.085938 0.421875 -1.046875 C 0.367188 -1.015625 0.320312 -0.96875 0.28125 -0.90625 C 0.25 -0.84375 0.234375 -0.769531 0.234375 -0.6875 C 0.234375 -0.59375 0.25 -0.515625 0.28125 -0.453125 C 0.320312 -0.390625 0.367188 -0.335938 0.421875 -0.296875 C 0.484375 -0.253906 0.550781 -0.222656 0.625 -0.203125 C 0.695312 -0.179688 0.773438 -0.171875 0.859375 -0.171875 C 0.941406 -0.171875 1.019531 -0.179688 1.09375 -0.203125 C 1.175781 -0.222656 1.242188 -0.253906 1.296875 -0.296875 C 1.359375 -0.335938 1.40625 -0.390625 1.4375 -0.453125 C 1.476562 -0.515625 1.5 -0.59375 1.5 -0.6875 Z M 1.5 -0.6875 "/></g></g></g><g fill="#ffffff" fill-opacity="1"><g transform="translate(94.544902, 89.724438)"><g/></g></g><g fill="#ffffff" fill-opacity="1"><g transform="translate(96.882534, 89.724438)"><g><path d="M 1.84375 0 L 1.578125 0 L 1.34375 -0.6875 L 0.390625 -0.6875 L 0.15625 0 L -0.109375 0 L 0.6875 -2.421875 L 1.046875 -2.421875 Z M 1.265625 -0.921875 L 0.859375 -2.15625 L 0.453125 -0.921875 Z M 1.265625 -0.921875 "/></g></g></g><g fill="#ffffff" fill-opacity="1"><g transform="translate(99.220166, 89.724438)"><g><path d="M 1.84375 -2.421875 L 1.03125 0 L 0.6875 0 L -0.109375 -2.421875 L 0.15625 -2.421875 L 0.859375 -0.25 L 1.5625 -2.421875 Z M 1.84375 -2.421875 "/></g></g></g><g fill="#ffffff" fill-opacity="1"><g transform="translate(101.557798, 89.724438)"><g><path d="M 1.75 0 L 1.421875 0 L 0.71875 -1.03125 L 0.34375 -1.03125 L 0.34375 0 L 0.09375 0 L 0.09375 -2.421875 L 0.890625 -2.421875 C 1.148438 -2.421875 1.351562 -2.363281 1.5 -2.25 C 1.644531 -2.132812 1.71875 -1.960938 1.71875 -1.734375 C 1.71875 -1.628906 1.695312 -1.535156 1.65625 -1.453125 C 1.625 -1.367188 1.578125 -1.296875 1.515625 -1.234375 C 1.460938 -1.179688 1.390625 -1.140625 1.296875 -1.109375 C 1.210938 -1.078125 1.117188 -1.054688 1.015625 -1.046875 Z M 1.453125 -1.734375 C 1.453125 -1.890625 1.398438 -2.003906 1.296875 -2.078125 C 1.203125 -2.160156 1.066406 -2.203125 0.890625 -2.203125 L 0.34375 -2.203125 L 0.34375 -1.25 L 0.890625 -1.25 C 1.066406 -1.25 1.203125 -1.285156 1.296875 -1.359375 C 1.398438 -1.441406 1.453125 -1.566406 1.453125 -1.734375 Z M 1.453125 -1.734375 "/></g></g></g><g fill="#ffffff" fill-opacity="1"><g transform="translate(103.89543, 89.724438)"><g><path d="M 1.375 0 L 0.34375 0 L 0.34375 -0.21875 L 0.734375 -0.21875 L 0.734375 -2.203125 L 0.34375 -2.203125 L 0.34375 -2.421875 L 1.375 -2.421875 L 1.375 -2.203125 L 0.984375 -2.203125 L 0.984375 -0.21875 L 1.375 -0.21875 Z M 1.375 0 "/></g></g></g><g fill="#ffffff" fill-opacity="1"><g transform="translate(106.233061, 89.724438)"><g><path d="M 1.640625 0 L 0.09375 0 L 0.09375 -2.421875 L 0.34375 -2.421875 L 0.34375 -0.21875 L 1.640625 -0.21875 Z M 1.640625 0 "/></g></g></g><g fill="#ffffff" fill-opacity="1"><g transform="translate(108.570693, 89.724438)"><g/></g></g><g fill="#ffffff" fill-opacity="1"><g transform="translate(110.908325, 89.724438)"><g><path d="M 1.640625 -1.796875 C 1.640625 -1.722656 1.632812 -1.660156 1.625 -1.609375 C 1.613281 -1.554688 1.59375 -1.503906 1.5625 -1.453125 C 1.53125 -1.398438 1.488281 -1.34375 1.4375 -1.28125 C 1.382812 -1.21875 1.320312 -1.148438 1.25 -1.078125 L 0.40625 -0.21875 L 1.421875 -0.21875 L 1.421875 -0.6875 L 1.640625 -0.6875 L 1.640625 0 L 0.078125 0 L 0.078125 -0.21875 L 1.015625 -1.1875 C 1.066406 -1.226562 1.113281 -1.269531 1.15625 -1.3125 C 1.195312 -1.363281 1.234375 -1.414062 1.265625 -1.46875 C 1.304688 -1.519531 1.332031 -1.570312 1.34375 -1.625 C 1.363281 -1.675781 1.375 -1.734375 1.375 -1.796875 C 1.375 -1.941406 1.328125 -2.050781 1.234375 -2.125 C 1.140625 -2.207031 1.019531 -2.25 0.875 -2.25 C 0.664062 -2.25 0.507812 -2.191406 0.40625 -2.078125 C 0.300781 -1.960938 0.25 -1.800781 0.25 -1.59375 L 0.015625 -1.59375 C 0.015625 -1.863281 0.0859375 -2.070312 0.234375 -2.21875 C 0.378906 -2.375 0.59375 -2.453125 0.875 -2.453125 C 0.976562 -2.453125 1.070312 -2.4375 1.15625 -2.40625 C 1.25 -2.382812 1.332031 -2.34375 1.40625 -2.28125 C 1.476562 -2.226562 1.535156 -2.160156 1.578125 -2.078125 C 1.617188 -1.992188 1.640625 -1.898438 1.640625 -1.796875 Z M 1.640625 -1.796875 "/></g></g></g><g fill="#ffffff" fill-opacity="1"><g transform="translate(113.245957, 89.724438)"><g><path d="M 0.1875 -1.203125 C 0.1875 -1.023438 0.207031 -0.859375 0.25 -0.703125 L 1.390625 -1.90625 C 1.328125 -2.007812 1.253906 -2.09375 1.171875 -2.15625 C 1.085938 -2.21875 0.984375 -2.25 0.859375 -2.25 C 0.648438 -2.25 0.484375 -2.15625 0.359375 -1.96875 C 0.242188 -1.78125 0.1875 -1.523438 0.1875 -1.203125 Z M 0.34375 -0.5 C 0.46875 -0.28125 0.640625 -0.171875 0.859375 -0.171875 C 1.078125 -0.171875 1.242188 -0.257812 1.359375 -0.4375 C 1.472656 -0.625 1.53125 -0.878906 1.53125 -1.203125 C 1.53125 -1.296875 1.523438 -1.378906 1.515625 -1.453125 C 1.503906 -1.535156 1.488281 -1.613281 1.46875 -1.6875 Z M -0.0625 -1.203125 C -0.0625 -1.367188 -0.0390625 -1.523438 0 -1.671875 C 0.03125 -1.828125 0.0820312 -1.960938 0.15625 -2.078125 C 0.226562 -2.191406 0.320312 -2.28125 0.4375 -2.34375 C 0.550781 -2.414062 0.691406 -2.453125 0.859375 -2.453125 C 1.023438 -2.453125 1.164062 -2.414062 1.28125 -2.34375 C 1.40625 -2.28125 1.503906 -2.191406 1.578125 -2.078125 C 1.648438 -1.960938 1.703125 -1.828125 1.734375 -1.671875 C 1.773438 -1.523438 1.796875 -1.367188 1.796875 -1.203125 C 1.796875 -1.046875 1.773438 -0.890625 1.734375 -0.734375 C 1.703125 -0.585938 1.648438 -0.457031 1.578125 -0.34375 C 1.503906 -0.226562 1.410156 -0.132812 1.296875 -0.0625 C 1.179688 0.0078125 1.035156 0.046875 0.859375 0.046875 C 0.691406 0.046875 0.546875 0.0078125 0.421875 -0.0625 C 0.304688 -0.132812 0.210938 -0.226562 0.140625 -0.34375 C 0.0664062 -0.457031 0.015625 -0.585938 -0.015625 -0.734375 C -0.046875 -0.890625 -0.0625 -1.046875 -0.0625 -1.203125 Z M -0.0625 -1.203125 "/></g></g></g><g fill="#ffffff" fill-opacity="1"><g transform="translate(115.583588, 89.724438)"><g><path d="M 1.640625 -1.796875 C 1.640625 -1.722656 1.632812 -1.660156 1.625 -1.609375 C 1.613281 -1.554688 1.59375 -1.503906 1.5625 -1.453125 C 1.53125 -1.398438 1.488281 -1.34375 1.4375 -1.28125 C 1.382812 -1.21875 1.320312 -1.148438 1.25 -1.078125 L 0.40625 -0.21875 L 1.421875 -0.21875 L 1.421875 -0.6875 L 1.640625 -0.6875 L 1.640625 0 L 0.078125 0 L 0.078125 -0.21875 L 1.015625 -1.1875 C 1.066406 -1.226562 1.113281 -1.269531 1.15625 -1.3125 C 1.195312 -1.363281 1.234375 -1.414062 1.265625 -1.46875 C 1.304688 -1.519531 1.332031 -1.570312 1.34375 -1.625 C 1.363281 -1.675781 1.375 -1.734375 1.375 -1.796875 C 1.375 -1.941406 1.328125 -2.050781 1.234375 -2.125 C 1.140625 -2.207031 1.019531 -2.25 0.875 -2.25 C 0.664062 -2.25 0.507812 -2.191406 0.40625 -2.078125 C 0.300781 -1.960938 0.25 -1.800781 0.25 -1.59375 L 0.015625 -1.59375 C 0.015625 -1.863281 0.0859375 -2.070312 0.234375 -2.21875 C 0.378906 -2.375 0.59375 -2.453125 0.875 -2.453125 C 0.976562 -2.453125 1.070312 -2.4375 1.15625 -2.40625 C 1.25 -2.382812 1.332031 -2.34375 1.40625 -2.28125 C 1.476562 -2.226562 1.535156 -2.160156 1.578125 -2.078125 C 1.617188 -1.992188 1.640625 -1.898438 1.640625 -1.796875 Z M 1.640625 -1.796875 "/></g></g></g><g fill="#ffffff" fill-opacity="1"><g transform="translate(117.92122, 89.724438)"><g><path d="M 0.1875 -1.203125 C 0.1875 -1.023438 0.207031 -0.859375 0.25 -0.703125 L 1.390625 -1.90625 C 1.328125 -2.007812 1.253906 -2.09375 1.171875 -2.15625 C 1.085938 -2.21875 0.984375 -2.25 0.859375 -2.25 C 0.648438 -2.25 0.484375 -2.15625 0.359375 -1.96875 C 0.242188 -1.78125 0.1875 -1.523438 0.1875 -1.203125 Z M 0.34375 -0.5 C 0.46875 -0.28125 0.640625 -0.171875 0.859375 -0.171875 C 1.078125 -0.171875 1.242188 -0.257812 1.359375 -0.4375 C 1.472656 -0.625 1.53125 -0.878906 1.53125 -1.203125 C 1.53125 -1.296875 1.523438 -1.378906 1.515625 -1.453125 C 1.503906 -1.535156 1.488281 -1.613281 1.46875 -1.6875 Z M -0.0625 -1.203125 C -0.0625 -1.367188 -0.0390625 -1.523438 0 -1.671875 C 0.03125 -1.828125 0.0820312 -1.960938 0.15625 -2.078125 C 0.226562 -2.191406 0.320312 -2.28125 0.4375 -2.34375 C 0.550781 -2.414062 0.691406 -2.453125 0.859375 -2.453125 C 1.023438 -2.453125 1.164062 -2.414062 1.28125 -2.34375 C 1.40625 -2.28125 1.503906 -2.191406 1.578125 -2.078125 C 1.648438 -1.960938 1.703125 -1.828125 1.734375 -1.671875 C 1.773438 -1.523438 1.796875 -1.367188 1.796875 -1.203125 C 1.796875 -1.046875 1.773438 -0.890625 1.734375 -0.734375 C 1.703125 -0.585938 1.648438 -0.457031 1.578125 -0.34375 C 1.503906 -0.226562 1.410156 -0.132812 1.296875 -0.0625 C 1.179688 0.0078125 1.035156 0.046875 0.859375 0.046875 C 0.691406 0.046875 0.546875 0.0078125 0.421875 -0.0625 C 0.304688 -0.132812 0.210938 -0.226562 0.140625 -0.34375 C 0.0664062 -0.457031 0.015625 -0.585938 -0.015625 -0.734375 C -0.046875 -0.890625 -0.0625 -1.046875 -0.0625 -1.203125 Z M -0.0625 -1.203125 "/></g></g></g><g fill="#ffffff" fill-opacity="1"><g transform="translate(52.471995, 94.821718)"><g><path d="M 1.8125 -1.203125 C 1.8125 -1.046875 1.789062 -0.894531 1.75 -0.75 C 1.71875 -0.601562 1.664062 -0.472656 1.59375 -0.359375 C 1.519531 -0.242188 1.421875 -0.15625 1.296875 -0.09375 C 1.179688 -0.03125 1.039062 0 0.875 0 L 0.09375 0 L 0.09375 -2.421875 L 0.875 -2.421875 C 1.039062 -2.421875 1.179688 -2.382812 1.296875 -2.3125 C 1.421875 -2.25 1.519531 -2.160156 1.59375 -2.046875 C 1.664062 -1.941406 1.71875 -1.816406 1.75 -1.671875 C 1.789062 -1.523438 1.8125 -1.367188 1.8125 -1.203125 Z M 1.546875 -1.203125 C 1.546875 -1.523438 1.488281 -1.769531 1.375 -1.9375 C 1.257812 -2.113281 1.09375 -2.203125 0.875 -2.203125 L 0.34375 -2.203125 L 0.34375 -0.21875 L 0.875 -0.21875 C 1.09375 -0.21875 1.257812 -0.300781 1.375 -0.46875 C 1.488281 -0.644531 1.546875 -0.890625 1.546875 -1.203125 Z M 1.546875 -1.203125 "/></g></g></g><g fill="#ffffff" fill-opacity="1"><g transform="translate(54.809629, 94.821718)"><g><path d="M 1.640625 0 L 0.09375 0 L 0.09375 -2.421875 L 1.640625 -2.421875 L 1.640625 -2.203125 L 0.34375 -2.203125 L 0.34375 -1.34375 L 1.296875 -1.34375 L 1.296875 -1.125 L 0.34375 -1.125 L 0.34375 -0.21875 L 1.640625 -0.21875 Z M 1.296875 -3 L 1.21875 -2.875 L 0.421875 -3.328125 L 0.546875 -3.53125 Z M 1.296875 -3 "/></g></g></g><g fill="#ffffff" fill-opacity="1"><g transform="translate(57.147263, 94.821718)"><g><path d="M 1.671875 -0.625 C 1.671875 -0.53125 1.648438 -0.441406 1.609375 -0.359375 C 1.566406 -0.273438 1.507812 -0.203125 1.4375 -0.140625 C 1.363281 -0.078125 1.28125 -0.03125 1.1875 0 C 1.101562 0.03125 1.007812 0.046875 0.90625 0.046875 C 0.769531 0.046875 0.644531 0.0195312 0.53125 -0.03125 C 0.414062 -0.0820312 0.328125 -0.15625 0.265625 -0.25 L 0.265625 0 L 0.046875 0 L 0.046875 -0.734375 L 0.265625 -0.734375 C 0.265625 -0.648438 0.28125 -0.570312 0.3125 -0.5 C 0.351562 -0.4375 0.398438 -0.378906 0.453125 -0.328125 C 0.515625 -0.273438 0.582031 -0.234375 0.65625 -0.203125 C 0.738281 -0.179688 0.820312 -0.171875 0.90625 -0.171875 C 0.976562 -0.171875 1.046875 -0.179688 1.109375 -0.203125 C 1.171875 -0.222656 1.222656 -0.25 1.265625 -0.28125 C 1.304688 -0.320312 1.335938 -0.367188 1.359375 -0.421875 C 1.390625 -0.484375 1.40625 -0.546875 1.40625 -0.609375 C 1.40625 -0.691406 1.390625 -0.757812 1.359375 -0.8125 C 1.328125 -0.875 1.28125 -0.921875 1.21875 -0.953125 C 1.164062 -0.992188 1.101562 -1.023438 1.03125 -1.046875 C 0.957031 -1.078125 0.882812 -1.109375 0.8125 -1.140625 C 0.726562 -1.171875 0.640625 -1.203125 0.546875 -1.234375 C 0.460938 -1.273438 0.382812 -1.320312 0.3125 -1.375 C 0.238281 -1.425781 0.179688 -1.488281 0.140625 -1.5625 C 0.0976562 -1.632812 0.078125 -1.726562 0.078125 -1.84375 C 0.078125 -1.9375 0.0976562 -2.019531 0.140625 -2.09375 C 0.179688 -2.175781 0.234375 -2.242188 0.296875 -2.296875 C 0.367188 -2.347656 0.453125 -2.382812 0.546875 -2.40625 C 0.640625 -2.4375 0.734375 -2.453125 0.828125 -2.453125 C 0.941406 -2.453125 1.046875 -2.425781 1.140625 -2.375 C 1.242188 -2.332031 1.320312 -2.265625 1.375 -2.171875 L 1.375 -2.421875 L 1.609375 -2.421875 L 1.609375 -1.734375 L 1.375 -1.734375 C 1.375 -1.804688 1.359375 -1.875 1.328125 -1.9375 C 1.304688 -2 1.269531 -2.050781 1.21875 -2.09375 C 1.164062 -2.132812 1.101562 -2.171875 1.03125 -2.203125 C 0.96875 -2.234375 0.898438 -2.25 0.828125 -2.25 C 0.753906 -2.25 0.6875 -2.238281 0.625 -2.21875 C 0.570312 -2.207031 0.519531 -2.179688 0.46875 -2.140625 C 0.425781 -2.109375 0.390625 -2.066406 0.359375 -2.015625 C 0.335938 -1.960938 0.328125 -1.90625 0.328125 -1.84375 C 0.328125 -1.78125 0.34375 -1.722656 0.375 -1.671875 C 0.40625 -1.628906 0.445312 -1.585938 0.5 -1.546875 C 0.5625 -1.515625 0.625 -1.484375 0.6875 -1.453125 C 0.757812 -1.429688 0.832031 -1.40625 0.90625 -1.375 C 1 -1.34375 1.085938 -1.304688 1.171875 -1.265625 C 1.265625 -1.234375 1.347656 -1.1875 1.421875 -1.125 C 1.492188 -1.070312 1.550781 -1.003906 1.59375 -0.921875 C 1.644531 -0.835938 1.671875 -0.738281 1.671875 -0.625 Z M 1.671875 -0.625 "/></g></g></g><g fill="#ffffff" fill-opacity="1"><g transform="translate(59.484896, 94.821718)"><g/></g></g><g fill="#ffffff" fill-opacity="1"><g transform="translate(61.82253, 94.821718)"><g><path d="M 1.375 0 L 0.34375 0 L 0.34375 -0.21875 L 0.734375 -0.21875 L 0.734375 -1.875 C 0.710938 -1.820312 0.675781 -1.765625 0.625 -1.703125 C 0.582031 -1.648438 0.523438 -1.597656 0.453125 -1.546875 C 0.390625 -1.503906 0.316406 -1.460938 0.234375 -1.421875 C 0.160156 -1.390625 0.0820312 -1.375 0 -1.375 L 0 -1.640625 C 0.0703125 -1.640625 0.148438 -1.660156 0.234375 -1.703125 C 0.328125 -1.753906 0.410156 -1.816406 0.484375 -1.890625 C 0.554688 -1.960938 0.613281 -2.046875 0.65625 -2.140625 C 0.707031 -2.234375 0.734375 -2.328125 0.734375 -2.421875 L 0.984375 -2.421875 L 0.984375 -0.21875 L 1.375 -0.21875 Z M 1.375 0 "/></g></g></g><g fill="#ffffff" fill-opacity="1"><g transform="translate(64.160164, 94.821718)"><g><path d="M -0.046875 -1.59375 C -0.046875 -1.726562 -0.0234375 -1.847656 0.015625 -1.953125 C 0.0664062 -2.054688 0.128906 -2.144531 0.203125 -2.21875 C 0.285156 -2.300781 0.378906 -2.359375 0.484375 -2.390625 C 0.597656 -2.429688 0.71875 -2.453125 0.84375 -2.453125 C 1.007812 -2.453125 1.148438 -2.414062 1.265625 -2.34375 C 1.378906 -2.28125 1.472656 -2.191406 1.546875 -2.078125 C 1.617188 -1.960938 1.671875 -1.828125 1.703125 -1.671875 C 1.734375 -1.523438 1.75 -1.367188 1.75 -1.203125 C 1.75 -1.046875 1.726562 -0.890625 1.6875 -0.734375 C 1.644531 -0.585938 1.578125 -0.453125 1.484375 -0.328125 C 1.398438 -0.210938 1.296875 -0.117188 1.171875 -0.046875 C 1.046875 0.015625 0.894531 0.046875 0.71875 0.046875 C 0.476562 0.046875 0.28125 -0.0351562 0.125 -0.203125 L 0.296875 -0.359375 C 0.347656 -0.296875 0.410156 -0.25 0.484375 -0.21875 C 0.554688 -0.1875 0.632812 -0.171875 0.71875 -0.171875 C 0.851562 -0.171875 0.96875 -0.195312 1.0625 -0.25 C 1.164062 -0.300781 1.25 -0.367188 1.3125 -0.453125 C 1.382812 -0.546875 1.4375 -0.648438 1.46875 -0.765625 C 1.5 -0.890625 1.515625 -1.03125 1.515625 -1.1875 C 1.492188 -1.125 1.457031 -1.0625 1.40625 -1 C 1.363281 -0.945312 1.3125 -0.898438 1.25 -0.859375 C 1.1875 -0.816406 1.117188 -0.785156 1.046875 -0.765625 C 0.972656 -0.742188 0.898438 -0.734375 0.828125 -0.734375 C 0.703125 -0.734375 0.582031 -0.753906 0.46875 -0.796875 C 0.363281 -0.835938 0.273438 -0.894531 0.203125 -0.96875 C 0.128906 -1.050781 0.0664062 -1.144531 0.015625 -1.25 C -0.0234375 -1.351562 -0.046875 -1.46875 -0.046875 -1.59375 Z M 0.21875 -1.59375 C 0.21875 -1.5 0.226562 -1.410156 0.25 -1.328125 C 0.28125 -1.253906 0.320312 -1.1875 0.375 -1.125 C 0.425781 -1.070312 0.488281 -1.03125 0.5625 -1 C 0.644531 -0.96875 0.734375 -0.953125 0.828125 -0.953125 C 0.921875 -0.953125 1.003906 -0.960938 1.078125 -0.984375 C 1.160156 -1.015625 1.226562 -1.054688 1.28125 -1.109375 C 1.332031 -1.171875 1.375 -1.238281 1.40625 -1.3125 C 1.4375 -1.394531 1.453125 -1.484375 1.453125 -1.578125 C 1.453125 -1.660156 1.4375 -1.742188 1.40625 -1.828125 C 1.382812 -1.910156 1.347656 -1.984375 1.296875 -2.046875 C 1.253906 -2.109375 1.191406 -2.15625 1.109375 -2.1875 C 1.035156 -2.226562 0.945312 -2.25 0.84375 -2.25 C 0.75 -2.25 0.660156 -2.234375 0.578125 -2.203125 C 0.503906 -2.171875 0.4375 -2.125 0.375 -2.0625 C 0.320312 -2.007812 0.28125 -1.941406 0.25 -1.859375 C 0.226562 -1.785156 0.21875 -1.695312 0.21875 -1.59375 Z M 0.21875 -1.59375 "/></g></g></g><g fill="#ffffff" fill-opacity="1"><g transform="translate(66.497798, 94.821718)"><g><path d="M 1.640625 0 L 1.375 0 L 1.375 -1.125 L 0.34375 -1.125 L 0.34375 0 L 0.09375 0 L 0.09375 -2.421875 L 0.34375 -2.421875 L 0.34375 -1.34375 L 1.375 -1.34375 L 1.375 -2.421875 L 1.640625 -2.421875 Z M 1.640625 0 "/></g></g></g><g fill="#ffffff" fill-opacity="1"><g transform="translate(68.835432, 94.821718)"><g/></g></g><g fill="#ffffff" fill-opacity="1"><g transform="translate(71.173066, 94.821718)"><g><path d="M 1.84375 0 L 1.578125 0 L 1.34375 -0.6875 L 0.390625 -0.6875 L 0.15625 0 L -0.109375 0 L 0.6875 -2.421875 L 1.046875 -2.421875 Z M 1.265625 -0.921875 L 0.859375 -2.15625 L 0.453125 -0.921875 Z M 1.296875 -3 L 1.21875 -2.875 L 0.421875 -3.328125 L 0.546875 -3.53125 Z M 1.296875 -3 "/></g></g></g><g fill="#ffffff" fill-opacity="1"><g transform="translate(73.5107, 94.821718)"><g/></g></g><g fill="#ffffff" fill-opacity="1"><g transform="translate(75.848334, 94.821718)"><g><path d="M 1.640625 0 L 0.09375 0 L 0.09375 -2.421875 L 0.34375 -2.421875 L 0.34375 -0.21875 L 1.640625 -0.21875 Z M 1.640625 0 "/></g></g></g><g fill="#ffffff" fill-opacity="1"><g transform="translate(78.185968, 94.821718)"><g><path d="M 1.03125 -2.421875 L 0.953125 -1.546875 L 0.765625 -1.546875 L 0.6875 -2.421875 Z M 1.03125 -2.421875 "/></g></g></g><g fill="#ffffff" fill-opacity="1"><g transform="translate(80.523602, 94.821718)"><g><path d="M 1.640625 0 L 1.375 0 L 1.375 -1.125 L 0.34375 -1.125 L 0.34375 0 L 0.09375 0 L 0.09375 -2.421875 L 0.34375 -2.421875 L 0.34375 -1.34375 L 1.375 -1.34375 L 1.375 -2.421875 L 1.640625 -2.421875 Z M 1.640625 0 "/></g></g></g><g fill="#ffffff" fill-opacity="1"><g transform="translate(82.861236, 94.821718)"><g><path d="M 1.796875 -1.203125 C 1.796875 -1.046875 1.773438 -0.890625 1.734375 -0.734375 C 1.703125 -0.585938 1.648438 -0.457031 1.578125 -0.34375 C 1.503906 -0.226562 1.410156 -0.132812 1.296875 -0.0625 C 1.179688 0.0078125 1.035156 0.046875 0.859375 0.046875 C 0.691406 0.046875 0.546875 0.0078125 0.421875 -0.0625 C 0.304688 -0.132812 0.210938 -0.226562 0.140625 -0.34375 C 0.0664062 -0.457031 0.015625 -0.585938 -0.015625 -0.734375 C -0.046875 -0.890625 -0.0625 -1.046875 -0.0625 -1.203125 C -0.0625 -1.367188 -0.046875 -1.523438 -0.015625 -1.671875 C 0.015625 -1.828125 0.0664062 -1.960938 0.140625 -2.078125 C 0.222656 -2.191406 0.320312 -2.28125 0.4375 -2.34375 C 0.550781 -2.414062 0.691406 -2.453125 0.859375 -2.453125 C 1.023438 -2.453125 1.164062 -2.414062 1.28125 -2.34375 C 1.40625 -2.28125 1.503906 -2.191406 1.578125 -2.078125 C 1.648438 -1.960938 1.703125 -1.828125 1.734375 -1.671875 C 1.773438 -1.523438 1.796875 -1.367188 1.796875 -1.203125 Z M 1.53125 -1.203125 C 1.53125 -1.367188 1.515625 -1.515625 1.484375 -1.640625 C 1.460938 -1.765625 1.421875 -1.867188 1.359375 -1.953125 C 1.304688 -2.046875 1.238281 -2.117188 1.15625 -2.171875 C 1.070312 -2.222656 0.972656 -2.25 0.859375 -2.25 C 0.734375 -2.25 0.625 -2.21875 0.53125 -2.15625 C 0.445312 -2.09375 0.378906 -2.007812 0.328125 -1.90625 C 0.273438 -1.800781 0.238281 -1.6875 0.21875 -1.5625 C 0.195312 -1.445312 0.1875 -1.328125 0.1875 -1.203125 C 0.1875 -1.085938 0.195312 -0.96875 0.21875 -0.84375 C 0.238281 -0.71875 0.273438 -0.601562 0.328125 -0.5 C 0.378906 -0.40625 0.445312 -0.328125 0.53125 -0.265625 C 0.625 -0.203125 0.734375 -0.171875 0.859375 -0.171875 C 0.992188 -0.171875 1.101562 -0.203125 1.1875 -0.265625 C 1.28125 -0.328125 1.351562 -0.40625 1.40625 -0.5 C 1.457031 -0.601562 1.488281 -0.71875 1.5 -0.84375 C 1.519531 -0.96875 1.53125 -1.085938 1.53125 -1.203125 Z M 1.421875 -3 L 1.3125 -2.875 L 0.875 -3.265625 L 0.40625 -2.875 L 0.3125 -3 L 0.859375 -3.53125 Z M 1.421875 -3 "/></g></g></g><g fill="#ffffff" fill-opacity="1"><g transform="translate(85.19887, 94.821718)"><g><path d="M 1.734375 -1.609375 L 1.515625 -1.609375 L 1.515625 -2.203125 L 0.984375 -2.203125 L 0.984375 -0.21875 L 1.375 -0.21875 L 1.375 0 L 0.34375 0 L 0.34375 -0.21875 L 0.734375 -0.21875 L 0.734375 -2.203125 L 0.21875 -2.203125 L 0.21875 -1.609375 L 0 -1.609375 L 0 -2.421875 L 1.734375 -2.421875 Z M 1.734375 -1.609375 "/></g></g></g><g fill="#ffffff" fill-opacity="1"><g transform="translate(87.536504, 94.821718)"><g><path d="M 1.640625 0 L 0.09375 0 L 0.09375 -2.421875 L 1.640625 -2.421875 L 1.640625 -2.203125 L 0.34375 -2.203125 L 0.34375 -1.34375 L 1.296875 -1.34375 L 1.296875 -1.125 L 0.34375 -1.125 L 0.34375 -0.21875 L 1.640625 -0.21875 Z M 1.640625 0 "/></g></g></g><g fill="#ffffff" fill-opacity="1"><g transform="translate(89.874139, 94.821718)"><g><path d="M 1.640625 0 L 0.09375 0 L 0.09375 -2.421875 L 0.34375 -2.421875 L 0.34375 -0.21875 L 1.640625 -0.21875 Z M 1.640625 0 "/></g></g></g><g fill="#ffffff" fill-opacity="1"><g transform="translate(92.211773, 94.821718)"><g/></g></g><g fill="#ffffff" fill-opacity="1"><g transform="translate(94.549404, 94.821718)"><g><path d="M 1.8125 -1.203125 C 1.8125 -1.046875 1.789062 -0.894531 1.75 -0.75 C 1.71875 -0.601562 1.664062 -0.472656 1.59375 -0.359375 C 1.519531 -0.242188 1.421875 -0.15625 1.296875 -0.09375 C 1.179688 -0.03125 1.039062 0 0.875 0 L 0.09375 0 L 0.09375 -2.421875 L 0.875 -2.421875 C 1.039062 -2.421875 1.179688 -2.382812 1.296875 -2.3125 C 1.421875 -2.25 1.519531 -2.160156 1.59375 -2.046875 C 1.664062 -1.941406 1.71875 -1.816406 1.75 -1.671875 C 1.789062 -1.523438 1.8125 -1.367188 1.8125 -1.203125 Z M 1.546875 -1.203125 C 1.546875 -1.523438 1.488281 -1.769531 1.375 -1.9375 C 1.257812 -2.113281 1.09375 -2.203125 0.875 -2.203125 L 0.34375 -2.203125 L 0.34375 -0.21875 L 0.875 -0.21875 C 1.09375 -0.21875 1.257812 -0.300781 1.375 -0.46875 C 1.488281 -0.644531 1.546875 -0.890625 1.546875 -1.203125 Z M 1.546875 -1.203125 "/></g></g></g><g fill="#ffffff" fill-opacity="1"><g transform="translate(96.887036, 94.821718)"><g><path d="M 1.640625 0 L 0.09375 0 L 0.09375 -2.421875 L 1.640625 -2.421875 L 1.640625 -2.203125 L 0.34375 -2.203125 L 0.34375 -1.34375 L 1.296875 -1.34375 L 1.296875 -1.125 L 0.34375 -1.125 L 0.34375 -0.21875 L 1.640625 -0.21875 Z M 1.640625 0 "/></g></g></g><g fill="#ffffff" fill-opacity="1"><g transform="translate(99.224668, 94.821718)"><g/></g></g><g fill="#ffffff" fill-opacity="1"><g transform="translate(101.5623, 94.821718)"><g><path d="M 1.84375 -2.421875 L 1.03125 0 L 0.6875 0 L -0.109375 -2.421875 L 0.15625 -2.421875 L 0.859375 -0.25 L 1.5625 -2.421875 Z M 1.84375 -2.421875 "/></g></g></g><g fill="#ffffff" fill-opacity="1"><g transform="translate(103.899932, 94.821718)"><g><path d="M 1.375 0 L 0.34375 0 L 0.34375 -0.21875 L 0.734375 -0.21875 L 0.734375 -2.203125 L 0.34375 -2.203125 L 0.34375 -2.421875 L 1.375 -2.421875 L 1.375 -2.203125 L 0.984375 -2.203125 L 0.984375 -0.21875 L 1.375 -0.21875 Z M 1.375 0 "/></g></g></g><g fill="#ffffff" fill-opacity="1"><g transform="translate(106.237563, 94.821718)"><g><path d="M 1.640625 0 L 0.09375 0 L 0.09375 -2.421875 L 0.34375 -2.421875 L 0.34375 -0.21875 L 1.640625 -0.21875 Z M 1.640625 0 "/></g></g></g><g fill="#ffffff" fill-opacity="1"><g transform="translate(108.575195, 94.821718)"><g><path d="M 1.640625 0 L 0.09375 0 L 0.09375 -2.421875 L 0.34375 -2.421875 L 0.34375 -0.21875 L 1.640625 -0.21875 Z M 1.640625 0 "/></g></g></g><g fill="#ffffff" fill-opacity="1"><g transform="translate(110.912827, 94.821718)"><g><path d="M 1.640625 0 L 0.09375 0 L 0.09375 -2.421875 L 1.640625 -2.421875 L 1.640625 -2.203125 L 0.34375 -2.203125 L 0.34375 -1.34375 L 1.296875 -1.34375 L 1.296875 -1.125 L 0.34375 -1.125 L 0.34375 -0.21875 L 1.640625 -0.21875 Z M 1.640625 0 "/></g></g></g><g fill="#ffffff" fill-opacity="1"><g transform="translate(113.250459, 94.821718)"><g/></g></g><g fill="#ffffff" fill-opacity="1"><g transform="translate(115.58809, 94.821718)"><g><path d="M 1.8125 -1.203125 C 1.8125 -1.046875 1.789062 -0.894531 1.75 -0.75 C 1.71875 -0.601562 1.664062 -0.472656 1.59375 -0.359375 C 1.519531 -0.242188 1.421875 -0.15625 1.296875 -0.09375 C 1.179688 -0.03125 1.039062 0 0.875 0 L 0.09375 0 L 0.09375 -2.421875 L 0.875 -2.421875 C 1.039062 -2.421875 1.179688 -2.382812 1.296875 -2.3125 C 1.421875 -2.25 1.519531 -2.160156 1.59375 -2.046875 C 1.664062 -1.941406 1.71875 -1.816406 1.75 -1.671875 C 1.789062 -1.523438 1.8125 -1.367188 1.8125 -1.203125 Z M 1.546875 -1.203125 C 1.546875 -1.523438 1.488281 -1.769531 1.375 -1.9375 C 1.257812 -2.113281 1.09375 -2.203125 0.875 -2.203125 L 0.34375 -2.203125 L 0.34375 -0.21875 L 0.875 -0.21875 C 1.09375 -0.21875 1.257812 -0.300781 1.375 -0.46875 C 1.488281 -0.644531 1.546875 -0.890625 1.546875 -1.203125 Z M 1.546875 -1.203125 "/></g></g></g><g fill="#ffffff" fill-opacity="1"><g transform="translate(117.925722, 94.821718)"><g><path d="M 1.640625 0 L 0.09375 0 L 0.09375 -2.421875 L 1.640625 -2.421875 L 1.640625 -2.203125 L 0.34375 -2.203125 L 0.34375 -1.34375 L 1.296875 -1.34375 L 1.296875 -1.125 L 0.34375 -1.125 L 0.34375 -0.21875 L 1.640625 -0.21875 Z M 1.640625 0 "/></g></g></g><g fill="#ffffff" fill-opacity="1"><g transform="translate(120.263354, 94.821718)"><g/></g></g><g fill="#ffffff" fill-opacity="1"><g transform="translate(122.600986, 94.821718)"><g><path d="M 1.640625 0 L 0.09375 0 L 0.09375 -2.421875 L 0.34375 -2.421875 L 0.34375 -0.21875 L 1.640625 -0.21875 Z M 1.640625 0 "/></g></g></g><g fill="#ffffff" fill-opacity="1"><g transform="translate(124.938618, 94.821718)"><g><path d="M 1.765625 -2.203125 L 1.5625 -2.203125 L 0.984375 -1.046875 L 0.984375 -0.21875 L 1.375 -0.21875 L 1.375 0 L 0.34375 0 L 0.34375 -0.21875 L 0.734375 -0.21875 L 0.734375 -1.046875 L 0.15625 -2.203125 L -0.03125 -2.203125 L -0.03125 -2.421875 L 0.640625 -2.421875 L 0.640625 -2.203125 L 0.4375 -2.203125 L 0.859375 -1.296875 L 1.28125 -2.203125 L 1.078125 -2.203125 L 1.078125 -2.421875 L 1.765625 -2.421875 Z M 1.765625 -2.203125 "/></g></g></g><g fill="#ffffff" fill-opacity="1"><g transform="translate(127.276249, 94.821718)"><g><path d="M 1.796875 -1.203125 C 1.796875 -1.046875 1.773438 -0.890625 1.734375 -0.734375 C 1.703125 -0.585938 1.648438 -0.457031 1.578125 -0.34375 C 1.503906 -0.226562 1.410156 -0.132812 1.296875 -0.0625 C 1.179688 0.0078125 1.035156 0.046875 0.859375 0.046875 C 0.691406 0.046875 0.546875 0.0078125 0.421875 -0.0625 C 0.304688 -0.132812 0.210938 -0.226562 0.140625 -0.34375 C 0.0664062 -0.457031 0.015625 -0.585938 -0.015625 -0.734375 C -0.046875 -0.890625 -0.0625 -1.046875 -0.0625 -1.203125 C -0.0625 -1.367188 -0.046875 -1.523438 -0.015625 -1.671875 C 0.015625 -1.828125 0.0664062 -1.960938 0.140625 -2.078125 C 0.222656 -2.191406 0.320312 -2.28125 0.4375 -2.34375 C 0.550781 -2.414062 0.691406 -2.453125 0.859375 -2.453125 C 1.023438 -2.453125 1.164062 -2.414062 1.28125 -2.34375 C 1.40625 -2.28125 1.503906 -2.191406 1.578125 -2.078125 C 1.648438 -1.960938 1.703125 -1.828125 1.734375 -1.671875 C 1.773438 -1.523438 1.796875 -1.367188 1.796875 -1.203125 Z M 1.53125 -1.203125 C 1.53125 -1.367188 1.515625 -1.515625 1.484375 -1.640625 C 1.460938 -1.765625 1.421875 -1.867188 1.359375 -1.953125 C 1.304688 -2.046875 1.238281 -2.117188 1.15625 -2.171875 C 1.070312 -2.222656 0.972656 -2.25 0.859375 -2.25 C 0.734375 -2.25 0.625 -2.21875 0.53125 -2.15625 C 0.445312 -2.09375 0.378906 -2.007812 0.328125 -1.90625 C 0.273438 -1.800781 0.238281 -1.6875 0.21875 -1.5625 C 0.195312 -1.445312 0.1875 -1.328125 0.1875 -1.203125 C 0.1875 -1.085938 0.195312 -0.96875 0.21875 -0.84375 C 0.238281 -0.71875 0.273438 -0.601562 0.328125 -0.5 C 0.378906 -0.40625 0.445312 -0.328125 0.53125 -0.265625 C 0.625 -0.203125 0.734375 -0.171875 0.859375 -0.171875 C 0.992188 -0.171875 1.101562 -0.203125 1.1875 -0.265625 C 1.28125 -0.328125 1.351562 -0.40625 1.40625 -0.5 C 1.457031 -0.601562 1.488281 -0.71875 1.5 -0.84375 C 1.519531 -0.96875 1.53125 -1.085938 1.53125 -1.203125 Z M 1.53125 -1.203125 "/></g></g></g><g fill="#ffffff" fill-opacity="1"><g transform="translate(129.613881, 94.821718)"><g><path d="M 1.640625 0 L 1.328125 0 L 0.34375 -2.046875 L 0.34375 0 L 0.09375 0 L 0.09375 -2.421875 L 0.453125 -2.421875 L 1.375 -0.46875 L 1.375 -2.421875 L 1.640625 -2.421875 Z M 1.640625 0 "/></g></g></g></svg>